<mxfile host="app.diagrams.net" modified="2024-05-12T22:16:21.346Z" agent="Mozilla/5.0 (Windows NT 10.0; Win64; x64) AppleWebKit/537.36 (KHTML, like Gecko) Chrome/124.0.0.0 Safari/537.36" etag="QRDztYliNcJL_FkeZ0hh" version="24.4.0" type="device">
  <diagram name="Page-1" id="pFz9UcpakJ3c2MkNKVS1">
    <mxGraphModel dx="2314" dy="1114" grid="1" gridSize="10" guides="1" tooltips="1" connect="1" arrows="1" fold="1" page="1" pageScale="1" pageWidth="827" pageHeight="1169" math="0" shadow="0">
      <root>
        <mxCell id="0" />
        <mxCell id="1" parent="0" />
        <mxCell id="dGwKfaGPGN7s1lTXhUub-6" value="" style="rounded=1;whiteSpace=wrap;html=1;" parent="1" vertex="1">
          <mxGeometry x="160" y="90" width="552.63" height="380" as="geometry" />
        </mxCell>
        <mxCell id="dGwKfaGPGN7s1lTXhUub-2" value="&lt;font size=&quot;3&quot;&gt;Welcome to Student Enrolment&lt;/font&gt;" style="rounded=1;whiteSpace=wrap;html=1;" parent="1" vertex="1">
          <mxGeometry x="263.15" y="130" width="346.32" height="60" as="geometry" />
        </mxCell>
        <mxCell id="dGwKfaGPGN7s1lTXhUub-3" value="Login" style="rounded=1;whiteSpace=wrap;html=1;align=left;" parent="1" vertex="1">
          <mxGeometry x="309.57" y="220" width="257" height="30" as="geometry" />
        </mxCell>
        <mxCell id="dGwKfaGPGN7s1lTXhUub-4" value="Password" style="rounded=1;whiteSpace=wrap;html=1;align=left;" parent="1" vertex="1">
          <mxGeometry x="309.57" y="280" width="253.5" height="30" as="geometry" />
        </mxCell>
        <mxCell id="dGwKfaGPGN7s1lTXhUub-5" value="&lt;font size=&quot;3&quot;&gt;Login&lt;/font&gt;" style="rounded=1;whiteSpace=wrap;html=1;" parent="1" vertex="1">
          <mxGeometry x="253.07" y="370" width="370" height="70" as="geometry" />
        </mxCell>
        <mxCell id="dGwKfaGPGN7s1lTXhUub-9" value="" style="rounded=0;whiteSpace=wrap;html=1;" parent="1" vertex="1">
          <mxGeometry x="40" y="500" width="980" height="910" as="geometry" />
        </mxCell>
        <mxCell id="dGwKfaGPGN7s1lTXhUub-12" value="" style="rounded=0;whiteSpace=wrap;html=1;" parent="1" vertex="1">
          <mxGeometry x="40" y="500" width="980" height="70" as="geometry" />
        </mxCell>
        <mxCell id="dGwKfaGPGN7s1lTXhUub-13" value="&lt;font style=&quot;font-size: 48px;&quot;&gt;AUT&lt;/font&gt;" style="text;html=1;align=center;verticalAlign=middle;whiteSpace=wrap;rounded=0;" parent="1" vertex="1">
          <mxGeometry x="40" y="500" width="160" height="70" as="geometry" />
        </mxCell>
        <mxCell id="dGwKfaGPGN7s1lTXhUub-20" value="Home" style="rounded=0;whiteSpace=wrap;html=1;" parent="1" vertex="1">
          <mxGeometry x="280" y="515" width="120" height="40" as="geometry" />
        </mxCell>
        <mxCell id="dGwKfaGPGN7s1lTXhUub-21" value="Enroll" style="rounded=0;whiteSpace=wrap;html=1;" parent="1" vertex="1">
          <mxGeometry x="470" y="515" width="120" height="40" as="geometry" />
        </mxCell>
        <mxCell id="dGwKfaGPGN7s1lTXhUub-23" value="" style="endArrow=none;html=1;rounded=0;entryX=0.824;entryY=0.014;entryDx=0;entryDy=0;entryPerimeter=0;" parent="1" edge="1">
          <mxGeometry width="50" height="50" relative="1" as="geometry">
            <mxPoint x="200" y="570" as="sourcePoint" />
            <mxPoint x="200.07999999999993" y="500.98" as="targetPoint" />
          </mxGeometry>
        </mxCell>
        <mxCell id="dGwKfaGPGN7s1lTXhUub-25" value="Current and Previous Enrolments" style="rounded=0;whiteSpace=wrap;html=1;" parent="1" vertex="1">
          <mxGeometry x="660" y="515" width="120" height="40" as="geometry" />
        </mxCell>
        <mxCell id="dGwKfaGPGN7s1lTXhUub-26" value="My Account" style="rounded=0;whiteSpace=wrap;html=1;" parent="1" vertex="1">
          <mxGeometry x="890" y="515" width="110" height="40" as="geometry" />
        </mxCell>
        <mxCell id="dGwKfaGPGN7s1lTXhUub-33" value="&lt;font face=&quot;Times New Roman&quot; style=&quot;font-size: 72px;&quot;&gt;Hello NAME&lt;/font&gt;" style="text;html=1;align=center;verticalAlign=middle;whiteSpace=wrap;rounded=0;" parent="1" vertex="1">
          <mxGeometry x="400" y="600.01" width="580" height="129.99" as="geometry" />
        </mxCell>
        <mxCell id="dGwKfaGPGN7s1lTXhUub-46" value="" style="rounded=0;whiteSpace=wrap;html=1;" parent="1" vertex="1">
          <mxGeometry x="60" y="585" width="260" height="90" as="geometry" />
        </mxCell>
        <mxCell id="dGwKfaGPGN7s1lTXhUub-47" value="&lt;font style=&quot;font-size: 18px;&quot;&gt;Student ID&lt;/font&gt;" style="text;html=1;align=center;verticalAlign=middle;whiteSpace=wrap;rounded=0;" parent="1" vertex="1">
          <mxGeometry x="60" y="585" width="260" height="40" as="geometry" />
        </mxCell>
        <mxCell id="dGwKfaGPGN7s1lTXhUub-49" value="&lt;font style=&quot;font-size: 18px;&quot;&gt;Degree Name&lt;/font&gt;" style="text;html=1;align=center;verticalAlign=middle;whiteSpace=wrap;rounded=0;" parent="1" vertex="1">
          <mxGeometry x="60" y="630.88" width="260" height="40" as="geometry" />
        </mxCell>
        <mxCell id="dGwKfaGPGN7s1lTXhUub-50" value="" style="endArrow=none;html=1;rounded=0;exitX=0;exitY=0;exitDx=0;exitDy=0;entryX=1;entryY=1;entryDx=0;entryDy=0;" parent="1" target="dGwKfaGPGN7s1lTXhUub-47" edge="1">
          <mxGeometry width="50" height="50" relative="1" as="geometry">
            <mxPoint x="60" y="625" as="sourcePoint" />
            <mxPoint x="310" y="625" as="targetPoint" />
          </mxGeometry>
        </mxCell>
        <mxCell id="gLcMmccUyFrAjFhxb3hN-2" value="" style="endArrow=none;html=1;rounded=0;exitX=-0.004;exitY=0.954;exitDx=0;exitDy=0;exitPerimeter=0;entryX=1.001;entryY=0.953;entryDx=0;entryDy=0;entryPerimeter=0;" parent="1" edge="1">
          <mxGeometry width="50" height="50" relative="1" as="geometry">
            <mxPoint x="39.9999999999997" y="1340.9099999999999" as="sourcePoint" />
            <mxPoint x="1024.9" y="1340" as="targetPoint" />
          </mxGeometry>
        </mxCell>
        <mxCell id="gLcMmccUyFrAjFhxb3hN-3" value="" style="rounded=0;whiteSpace=wrap;html=1;" parent="1" vertex="1">
          <mxGeometry x="770" y="760" width="230" height="570" as="geometry" />
        </mxCell>
        <mxCell id="gLcMmccUyFrAjFhxb3hN-4" value="" style="rounded=0;whiteSpace=wrap;html=1;" parent="1" vertex="1">
          <mxGeometry x="60" y="760" width="390" height="325" as="geometry" />
        </mxCell>
        <mxCell id="gLcMmccUyFrAjFhxb3hN-5" value="" style="rounded=0;whiteSpace=wrap;html=1;" parent="1" vertex="1">
          <mxGeometry x="480" y="760" width="250" height="570" as="geometry" />
        </mxCell>
        <mxCell id="gLcMmccUyFrAjFhxb3hN-6" value="" style="endArrow=none;html=1;rounded=0;exitX=0.004;exitY=0.138;exitDx=0;exitDy=0;exitPerimeter=0;entryX=1;entryY=0.138;entryDx=0;entryDy=0;entryPerimeter=0;" parent="1" source="gLcMmccUyFrAjFhxb3hN-3" target="gLcMmccUyFrAjFhxb3hN-3" edge="1">
          <mxGeometry width="50" height="50" relative="1" as="geometry">
            <mxPoint x="810" y="890" as="sourcePoint" />
            <mxPoint x="860" y="840" as="targetPoint" />
          </mxGeometry>
        </mxCell>
        <mxCell id="gLcMmccUyFrAjFhxb3hN-7" value="" style="endArrow=none;html=1;rounded=0;exitX=0.001;exitY=0.368;exitDx=0;exitDy=0;exitPerimeter=0;" parent="1" source="gLcMmccUyFrAjFhxb3hN-3" edge="1">
          <mxGeometry width="50" height="50" relative="1" as="geometry">
            <mxPoint x="820" y="1020" as="sourcePoint" />
            <mxPoint x="1001" y="969" as="targetPoint" />
          </mxGeometry>
        </mxCell>
        <mxCell id="gLcMmccUyFrAjFhxb3hN-8" value="" style="endArrow=none;html=1;rounded=0;exitX=-0.008;exitY=0.613;exitDx=0;exitDy=0;exitPerimeter=0;entryX=1.002;entryY=0.611;entryDx=0;entryDy=0;entryPerimeter=0;" parent="1" edge="1">
          <mxGeometry width="50" height="50" relative="1" as="geometry">
            <mxPoint x="769.9999999999999" y="1119.9999999999998" as="sourcePoint" />
            <mxPoint x="1002.3000000000001" y="1118.86" as="targetPoint" />
          </mxGeometry>
        </mxCell>
        <mxCell id="gLcMmccUyFrAjFhxb3hN-9" value="Uni infomation and events" style="text;html=1;align=center;verticalAlign=middle;whiteSpace=wrap;rounded=0;" parent="1" vertex="1">
          <mxGeometry x="785" y="780" width="200" height="30" as="geometry" />
        </mxCell>
        <mxCell id="gLcMmccUyFrAjFhxb3hN-10" value="" style="endArrow=none;html=1;rounded=0;entryX=1.008;entryY=0.109;entryDx=0;entryDy=0;entryPerimeter=0;" parent="1" edge="1">
          <mxGeometry width="50" height="50" relative="1" as="geometry">
            <mxPoint x="60" y="795" as="sourcePoint" />
            <mxPoint x="449.9999999999999" y="795.425" as="targetPoint" />
          </mxGeometry>
        </mxCell>
        <mxCell id="gLcMmccUyFrAjFhxb3hN-12" value="&lt;font style=&quot;font-size: 24px;&quot;&gt;Current classes&lt;/font&gt;" style="text;html=1;align=center;verticalAlign=middle;whiteSpace=wrap;rounded=0;" parent="1" vertex="1">
          <mxGeometry x="60" y="760" width="390" height="35" as="geometry" />
        </mxCell>
        <mxCell id="gLcMmccUyFrAjFhxb3hN-13" value="" style="rounded=1;whiteSpace=wrap;html=1;" parent="1" vertex="1">
          <mxGeometry x="70" y="805" width="370" height="270" as="geometry" />
        </mxCell>
        <mxCell id="gLcMmccUyFrAjFhxb3hN-14" value="" style="endArrow=none;html=1;rounded=0;exitX=0;exitY=0.25;exitDx=0;exitDy=0;entryX=1;entryY=0.25;entryDx=0;entryDy=0;" parent="1" source="gLcMmccUyFrAjFhxb3hN-13" target="gLcMmccUyFrAjFhxb3hN-13" edge="1">
          <mxGeometry width="50" height="50" relative="1" as="geometry">
            <mxPoint x="100" y="895" as="sourcePoint" />
            <mxPoint x="150" y="845" as="targetPoint" />
          </mxGeometry>
        </mxCell>
        <mxCell id="gLcMmccUyFrAjFhxb3hN-15" value="" style="endArrow=none;html=1;rounded=0;exitX=0.5;exitY=1;exitDx=0;exitDy=0;" parent="1" source="gLcMmccUyFrAjFhxb3hN-13" edge="1">
          <mxGeometry width="50" height="50" relative="1" as="geometry">
            <mxPoint x="220" y="985" as="sourcePoint" />
            <mxPoint x="255" y="875" as="targetPoint" />
          </mxGeometry>
        </mxCell>
        <mxCell id="gLcMmccUyFrAjFhxb3hN-16" value="" style="endArrow=none;html=1;rounded=0;exitX=0.001;exitY=0.398;exitDx=0;exitDy=0;exitPerimeter=0;entryX=1.001;entryY=0.393;entryDx=0;entryDy=0;entryPerimeter=0;" parent="1" source="gLcMmccUyFrAjFhxb3hN-13" target="gLcMmccUyFrAjFhxb3hN-13" edge="1">
          <mxGeometry width="50" height="50" relative="1" as="geometry">
            <mxPoint x="160" y="975" as="sourcePoint" />
            <mxPoint x="255" y="912" as="targetPoint" />
          </mxGeometry>
        </mxCell>
        <mxCell id="gLcMmccUyFrAjFhxb3hN-17" value="" style="endArrow=none;html=1;rounded=0;exitX=0.004;exitY=0.631;exitDx=0;exitDy=0;exitPerimeter=0;" parent="1" edge="1">
          <mxGeometry width="50" height="50" relative="1" as="geometry">
            <mxPoint x="70.00000000000001" y="955.3700000000001" as="sourcePoint" />
            <mxPoint x="440" y="955" as="targetPoint" />
          </mxGeometry>
        </mxCell>
        <mxCell id="gLcMmccUyFrAjFhxb3hN-18" value="" style="endArrow=none;html=1;rounded=0;exitX=-0.005;exitY=0.697;exitDx=0;exitDy=0;exitPerimeter=0;" parent="1" edge="1">
          <mxGeometry width="50" height="50" relative="1" as="geometry">
            <mxPoint x="70.00000000000009" y="995" as="sourcePoint" />
            <mxPoint x="440" y="995" as="targetPoint" />
          </mxGeometry>
        </mxCell>
        <mxCell id="gLcMmccUyFrAjFhxb3hN-19" value="" style="endArrow=none;html=1;rounded=0;exitX=0.002;exitY=0.838;exitDx=0;exitDy=0;exitPerimeter=0;entryX=1.003;entryY=0.83;entryDx=0;entryDy=0;entryPerimeter=0;" parent="1" source="gLcMmccUyFrAjFhxb3hN-13" target="gLcMmccUyFrAjFhxb3hN-13" edge="1">
          <mxGeometry width="50" height="50" relative="1" as="geometry">
            <mxPoint x="110" y="1065" as="sourcePoint" />
            <mxPoint x="160" y="1015" as="targetPoint" />
          </mxGeometry>
        </mxCell>
        <mxCell id="gLcMmccUyFrAjFhxb3hN-20" value="" style="endArrow=none;html=1;rounded=0;entryX=0.5;entryY=0;entryDx=0;entryDy=0;" parent="1" target="gLcMmccUyFrAjFhxb3hN-13" edge="1">
          <mxGeometry width="50" height="50" relative="1" as="geometry">
            <mxPoint x="255" y="1075" as="sourcePoint" />
            <mxPoint x="280" y="825" as="targetPoint" />
          </mxGeometry>
        </mxCell>
        <mxCell id="gLcMmccUyFrAjFhxb3hN-21" value="Suggestion" style="text;html=1;align=center;verticalAlign=middle;whiteSpace=wrap;rounded=0;" parent="1" vertex="1">
          <mxGeometry x="73.07" y="875" width="180" height="30" as="geometry" />
        </mxCell>
        <mxCell id="gLcMmccUyFrAjFhxb3hN-23" value="Suggestion" style="text;html=1;align=center;verticalAlign=middle;whiteSpace=wrap;rounded=0;" parent="1" vertex="1">
          <mxGeometry x="73.07" y="915" width="180" height="30" as="geometry" />
        </mxCell>
        <mxCell id="gLcMmccUyFrAjFhxb3hN-24" value="Suggestion" style="text;html=1;align=center;verticalAlign=middle;whiteSpace=wrap;rounded=0;" parent="1" vertex="1">
          <mxGeometry x="260" y="875" width="180" height="30" as="geometry" />
        </mxCell>
        <mxCell id="gLcMmccUyFrAjFhxb3hN-25" value="Suggestion" style="text;html=1;align=center;verticalAlign=middle;whiteSpace=wrap;rounded=0;" parent="1" vertex="1">
          <mxGeometry x="260" y="915" width="180" height="30" as="geometry" />
        </mxCell>
        <mxCell id="gLcMmccUyFrAjFhxb3hN-26" value="Suggestion" style="text;html=1;align=center;verticalAlign=middle;whiteSpace=wrap;rounded=0;" parent="1" vertex="1">
          <mxGeometry x="73.07" y="955" width="180" height="30" as="geometry" />
        </mxCell>
        <mxCell id="gLcMmccUyFrAjFhxb3hN-27" value="Suggestion" style="text;html=1;align=center;verticalAlign=middle;whiteSpace=wrap;rounded=0;" parent="1" vertex="1">
          <mxGeometry x="260" y="955" width="180" height="30" as="geometry" />
        </mxCell>
        <mxCell id="gLcMmccUyFrAjFhxb3hN-28" value="Suggestion" style="text;html=1;align=center;verticalAlign=middle;whiteSpace=wrap;rounded=0;" parent="1" vertex="1">
          <mxGeometry x="73.07" y="995" width="180" height="30" as="geometry" />
        </mxCell>
        <mxCell id="gLcMmccUyFrAjFhxb3hN-29" value="Suggestion" style="text;html=1;align=center;verticalAlign=middle;whiteSpace=wrap;rounded=0;" parent="1" vertex="1">
          <mxGeometry x="260" y="995" width="180" height="30" as="geometry" />
        </mxCell>
        <mxCell id="gLcMmccUyFrAjFhxb3hN-30" value="Sem 1" style="text;html=1;align=center;verticalAlign=middle;whiteSpace=wrap;rounded=0;" parent="1" vertex="1">
          <mxGeometry x="93.07" y="825" width="140" height="30" as="geometry" />
        </mxCell>
        <mxCell id="gLcMmccUyFrAjFhxb3hN-31" value="Sem 2" style="text;html=1;align=center;verticalAlign=middle;whiteSpace=wrap;rounded=0;" parent="1" vertex="1">
          <mxGeometry x="275" y="825" width="150" height="30" as="geometry" />
        </mxCell>
        <mxCell id="gLcMmccUyFrAjFhxb3hN-32" value="Fake add 1" style="text;html=1;align=center;verticalAlign=middle;whiteSpace=wrap;rounded=0;" parent="1" vertex="1">
          <mxGeometry x="837.5" y="880" width="95" height="30" as="geometry" />
        </mxCell>
        <mxCell id="gLcMmccUyFrAjFhxb3hN-33" value="Fake Add 2" style="text;html=1;align=center;verticalAlign=middle;whiteSpace=wrap;rounded=0;" parent="1" vertex="1">
          <mxGeometry x="842.5" y="1030" width="85" height="30" as="geometry" />
        </mxCell>
        <mxCell id="gLcMmccUyFrAjFhxb3hN-34" value="Fake Add 3" style="text;html=1;align=center;verticalAlign=middle;whiteSpace=wrap;rounded=0;" parent="1" vertex="1">
          <mxGeometry x="847.5" y="1200" width="75" height="30" as="geometry" />
        </mxCell>
        <mxCell id="gLcMmccUyFrAjFhxb3hN-35" value="" style="endArrow=none;html=1;rounded=0;" parent="1" edge="1">
          <mxGeometry width="50" height="50" relative="1" as="geometry">
            <mxPoint x="480" y="820" as="sourcePoint" />
            <mxPoint x="730" y="820" as="targetPoint" />
          </mxGeometry>
        </mxCell>
        <mxCell id="gLcMmccUyFrAjFhxb3hN-36" value="Enrolment" style="text;html=1;align=center;verticalAlign=middle;whiteSpace=wrap;rounded=0;" parent="1" vertex="1">
          <mxGeometry x="500" y="770" width="210" height="40" as="geometry" />
        </mxCell>
      </root>
    </mxGraphModel>
  </diagram>
</mxfile>
